<?xml version="1.0" standalone="no"?>
<!DOCTYPE svg PUBLIC "-//W3C//DTD SVG 20010904//EN"
 "http://www.w3.org/TR/2001/REC-SVG-20010904/DTD/svg10.dtd">
<svg version="1.0" xmlns="http://www.w3.org/2000/svg"
 width="550.000000pt" height="550.000000pt" viewBox="0 0 550.000000 550.000000"
 preserveAspectRatio="xMidYMid meet">
<metadata>
Created by potrace 1.11, written by Peter Selinger 2001-2013
</metadata>
<g transform="translate(0.000000,550.000000) scale(0.100000,-0.100000)"
fill="#000000" stroke="none">
<path d="M2424 5075 c-62 -7 -120 -15 -130 -18 -11 -4 -37 -9 -59 -12 -159
-22 -433 -107 -618 -192 -406 -187 -740 -462 -995 -820 -40 -55 -72 -104 -72
-108 0 -4 -8 -19 -19 -33 -34 -49 -98 -175 -145 -286 -86 -200 -143 -426 -167
-651 -11 -103 -7 -393 6 -490 10 -73 35 -199 51 -255 8 -30 17 -64 19 -74 24
-107 146 -398 197 -469 13 -18 21 -32 19 -32 -14 0 170 -269 210 -308 11 -10
19 -21 19 -25 0 -13 212 -226 290 -292 41 -34 85 -71 98 -81 12 -11 26 -19 31
-19 5 0 11 -4 13 -9 7 -18 215 -147 358 -222 153 -80 382 -163 559 -204 237
-55 387 -73 631 -72 263 0 412 18 650 77 257 65 527 179 745 315 61 38 112 71
115 75 3 3 21 17 40 30 111 75 299 249 411 380 61 71 198 257 213 290 4 8 18
33 31 55 33 55 118 227 148 300 24 58 84 241 91 281 2 10 9 37 14 59 6 22 16
74 22 115 6 41 14 86 17 100 11 55 13 403 3 491 -50 434 -216 835 -490 1179
-212 267 -512 507 -835 669 -27 14 -52 25 -55 26 -3 1 -27 12 -55 24 -121 56
-399 144 -515 165 -19 3 -46 8 -60 11 -185 39 -578 54 -786 30z"/>
</g>
</svg>
